<?xml version="1.0" standalone="no"?>
<!DOCTYPE svg PUBLIC "-//W3C//DTD SVG 20010904//EN"
 "http://www.w3.org/TR/2001/REC-SVG-20010904/DTD/svg10.dtd">
<svg version="1.0" xmlns="http://www.w3.org/2000/svg"
 width="300.000000pt" height="300.000000pt" viewBox="0 0 300.000000 300.000000"
 preserveAspectRatio="xMidYMid meet">
<metadata>
Created by potrace 1.10, written by Peter Selinger 2001-2011
</metadata>
<script>
console.log(document.cookie);
//bugbounty testing
</script>
<g transform="translate(0.000000,300.000000) scale(0.100000,-0.100000)"
fill="#000000" stroke="none">
<path d="M1425 2316 c-50 -22 -92 -64 -112 -111 l-18 -44 -95 -3 -95 -3 0
-370 0 -370 293 -3 c181 -1 309 2 332 8 57 15 119 67 154 130 l31 55 3 264 c2
192 -1 267 -10 278 -8 11 -34 14 -102 12 l-90 -2 -11 32 c-15 46 -61 98 -105
121 -46 23 -129 26 -175 6z m75 -16 c0 -5 -9 -10 -20 -10 -31 0 -74 -25 -104
-61 -15 -17 -29 -29 -32 -27 -7 8 44 66 70 80 11 6 35 15 51 19 17 4 31 7 33
8 1 1 2 -3 2 -9z m25 0 c3 -5 1 -10 -4 -10 -6 0 -11 5 -11 10 0 6 2 10 4 10 3
0 8 -4 11 -10z m74 -21 c36 -22 70 -58 70 -74 0 -5 -12 5 -27 22 -15 18 -45
42 -67 52 -22 11 -33 20 -25 21 8 0 30 -9 49 -21z m-11 -35 c22 -14 62 -70 62
-86 0 -4 -12 -10 -27 -14 -16 -3 -48 -12 -73 -20 -41 -13 -50 -12 -102 6 -32
11 -64 20 -72 20 -12 0 -13 5 -4 30 11 32 58 74 93 83 30 8 97 -2 123 -19z
m-238 -58 c0 -3 -4 -8 -10 -11 -5 -3 -10 -1 -10 4 0 6 5 11 10 11 6 0 10 -2
10 -4z m330 -6 c0 -5 -2 -10 -4 -10 -3 0 -8 5 -11 10 -3 6 -1 10 4 10 6 0 11
-4 11 -10z m-315 -39 c3 -5 20 -13 38 -16 17 -4 50 -18 73 -30 l41 -23 27 23
c15 13 45 26 67 30 21 4 41 10 43 14 6 9 228 1 239 -8 4 -4 -48 -8 -115 -9
-68 0 -143 -5 -168 -10 -34 -6 -4 -8 115 -8 l160 1 2 -225 c2 -240 -7 -304
-47 -351 -20 -24 -20 -24 -31 -4 -21 35 -100 106 -133 118 -31 11 -30 12 26
18 162 18 230 196 120 313 -93 99 -262 61 -306 -69 l-13 -37 -6 30 c-8 39 -62
101 -104 118 -73 31 -157 11 -210 -49 -18 -20 -37 -53 -42 -74 -13 -47 -13
-49 -1 -95 22 -77 101 -137 182 -139 l43 -1 -33 -11 c-45 -14 -135 -113 -150
-165 -10 -33 -18 -42 -36 -42 l-22 0 -3 329 -2 328 32 7 c17 3 70 6 117 6 47
0 83 3 79 6 -3 3 -58 6 -123 6 -136 0 -143 16 -9 21 50 1 102 4 117 5 15 1 29
-2 33 -7z m25 -153 c65 -34 85 -67 85 -142 0 -53 -4 -68 -27 -98 -71 -93 -217
-81 -271 22 -23 45 -18 130 9 168 24 32 98 72 134 72 14 0 46 -10 70 -22z
m370 0 c61 -31 90 -77 90 -142 0 -83 -54 -146 -137 -162 -39 -7 -94 10 -118
36 -10 11 -25 20 -34 20 -11 -1 -7 -8 13 -24 27 -23 28 -25 12 -47 -9 -13 -16
-20 -16 -16 0 4 -13 1 -30 -8 -28 -15 -33 -14 -80 10 -54 27 -62 40 -30 48 11
3 24 16 29 30 11 28 46 41 72 26 27 -14 29 -11 12 22 -21 42 -13 117 17 159
25 35 89 69 130 70 14 0 46 -10 70 -22z m-253 -200 c-3 -7 -5 -2 -5 12 0 14 2
19 5 13 2 -7 2 -19 0 -25z m32 -153 c31 16 31 15 19 -4 -6 -11 -22 -25 -35
-32 -21 -11 -27 -9 -59 22 -27 25 -33 28 -25 12 14 -27 49 -53 72 -53 10 0 32
17 51 39 18 21 44 42 58 46 14 4 22 4 18 0 -5 -5 14 -21 41 -36 49 -28 131
-112 131 -134 0 -7 -23 -22 -51 -34 -54 -24 -184 -35 -226 -20 -14 5 -23 5
-23 -1 0 -6 -67 -8 -165 -7 -102 1 -165 6 -165 12 0 22 61 114 96 145 21 18
60 43 87 55 l49 23 48 -25 c46 -24 49 -24 79 -8z"/>
<path d="M1338 1925 c2 -14 -1 -32 -8 -40 -17 -20 -69 -19 -77 1 -9 24 -23 -3
-23 -44 0 -52 54 -102 110 -102 58 0 100 41 100 100 0 52 -13 76 -50 95 -43
22 -58 20 -52 -10z m67 -35 c36 -40 -11 -130 -67 -130 -32 0 -78 39 -78 65 0
18 4 22 21 18 27 -7 64 13 78 43 13 29 22 30 46 4z"/>
<path d="M1676 1935 c20 -51 -37 -95 -76 -60 -20 18 -20 17 -20 -29 0 -101
104 -144 176 -72 26 26 34 42 34 71 0 29 -8 45 -34 71 -36 36 -91 49 -80 19z
m65 -35 c13 -8 19 -21 19 -46 0 -47 -14 -70 -49 -82 -36 -13 -90 11 -102 46
-7 19 -5 22 17 22 36 0 63 17 74 46 11 27 14 28 41 14z"/>
<path d="M1493 1700 c0 -30 2 -43 4 -27 2 15 2 39 0 55 -2 15 -4 2 -4 -28z"/>
<path d="M1012 1490 c-24 -15 -32 -27 -30 -42 3 -23 53 -53 103 -63 23 -4 20
-2 -10 10 -98 37 -110 61 -47 94 20 11 33 20 27 21 -5 0 -25 -9 -43 -20z"/>
<path d="M1941 1497 c2 -1 15 -11 29 -22 l25 -20 -19 23 c-11 12 -24 22 -29
22 -6 0 -8 -1 -6 -3z"/>
<path d="M1980 1442 c0 -6 -12 -18 -27 -26 -16 -8 -23 -15 -17 -16 18 0 60 37
52 46 -5 4 -8 2 -8 -4z"/>
<path d="M1868 1383 c7 -3 16 -2 19 1 4 3 -2 6 -13 5 -11 0 -14 -3 -6 -6z"/>
<path d="M1145 1370 c17 -4 44 -8 60 -8 25 0 24 2 -10 9 -51 10 -92 10 -50 -1z"/>
<path d="M1770 1370 c-34 -7 -34 -7 -5 -8 17 0 44 4 60 8 27 7 27 8 5 8 -14
-1 -41 -4 -60 -8z"/>
<path d="M1263 1353 c15 -2 39 -2 55 0 15 2 2 4 -28 4 -30 0 -43 -2 -27 -4z"/>
<path d="M1653 1353 c15 -2 39 -2 55 0 15 2 2 4 -28 4 -30 0 -43 -2 -27 -4z"/>
<path d="M1433 1343 c32 -2 81 -2 110 0 29 2 3 3 -58 3 -60 0 -84 -1 -52 -3z"/>
<path d="M775 1198 c-11 -6 -23 -16 -27 -22 -4 -6 -8 -90 -8 -187 0 -158 2
-178 18 -192 34 -31 42 -21 42 48 l0 65 34 0 c44 0 66 -22 66 -65 0 -35 21
-65 46 -65 10 0 14 14 14 55 0 61 -15 102 -41 110 -15 5 -12 13 22 64 21 32
39 60 39 63 0 2 -17 2 -38 0 -34 -3 -41 -9 -66 -53 -21 -37 -33 -49 -51 -49
-24 0 -24 1 -27 119 -3 116 -4 119 -23 109z m2 -120 c-2 -18 -4 -6 -4 27 0 33
2 48 4 33 2 -15 2 -42 0 -60z m18 -134 c4 -12 2 -25 -4 -28 -6 -4 -11 -28 -11
-53 0 -26 -2 -44 -5 -42 -6 6 -8 79 -5 159 2 61 3 63 10 25 5 -22 11 -50 15
-61z m105 46 c-22 -31 -19 -48 15 -72 5 -4 6 -10 3 -14 -4 -3 -14 1 -23 10 -9
9 -25 16 -36 16 -10 0 -19 5 -19 10 0 6 4 10 10 10 5 0 22 18 36 40 15 22 29
38 32 36 2 -3 -6 -19 -18 -36z m35 -110 c3 -5 1 -10 -4 -10 -6 0 -11 5 -11 10
0 6 2 10 4 10 3 0 8 -4 11 -10z"/>
<path d="M2245 1198 c-33 -18 -35 -27 -35 -154 0 -145 -10 -181 -56 -200 -37
-15 -58 -11 -91 19 -28 25 -31 91 -8 124 21 30 74 39 114 19 l31 -17 0 34 c0
38 -27 57 -81 57 -138 0 -200 -176 -94 -268 49 -43 103 -50 162 -20 76 37 84
64 81 256 -3 157 -3 160 -23 150z m-197 -185 c-14 -16 -27 -35 -30 -43 -3 -9
-7 -10 -11 -3 -8 13 39 73 56 73 6 0 -1 -12 -15 -27z m178 -158 c-9 -13 -26
-30 -38 -36 -18 -9 -16 -4 10 23 17 19 33 43 33 53 1 18 2 18 6 2 3 -10 -2
-29 -11 -42z m-206 24 c0 -7 10 -20 22 -30 11 -11 18 -22 14 -26 -6 -6 -26 15
-47 50 -6 11 -6 17 1 17 5 0 10 -5 10 -11z"/>
<path d="M2339 1149 c-9 -18 -7 -25 9 -41 16 -16 23 -18 41 -9 23 13 28 40 9
59 -19 19 -46 14 -59 -9z"/>
<path d="M242 1134 c-21 -14 -22 -22 -22 -160 0 -141 1 -146 25 -169 20 -21
34 -25 83 -25 l59 0 -5 29 c-4 28 -8 30 -51 33 l-46 3 -3 83 -3 82 51 0 c50 0
50 0 50 33 l0 32 -50 -3 -50 -4 0 41 c0 45 -5 48 -38 25z m38 -88 c0 -6 -7
-20 -15 -30 -14 -18 -15 -17 -15 23 0 38 2 42 15 31 8 -7 15 -18 15 -24z m-23
-148 c-2 -18 -4 -4 -4 32 0 36 2 50 4 33 2 -18 2 -48 0 -65z m27 -74 c4 -10 1
-14 -6 -12 -15 5 -23 28 -10 28 5 0 13 -7 16 -16z"/>
<path d="M480 1061 c-52 -27 -80 -74 -80 -134 0 -89 61 -151 150 -151 89 0
150 62 150 151 0 116 -119 188 -220 134z m-5 -51 c-16 -16 -31 -28 -33 -25 -7
7 39 55 52 55 5 0 -3 -13 -19 -30z m157 13 c23 -28 38 -71 37 -106 -1 -35 -27
-88 -47 -95 -7 -2 -1 13 13 33 38 57 32 107 -18 163 -11 12 -16 22 -10 22 5 0
16 -8 25 -17z m-29 -23 c79 -62 11 -191 -83 -158 -90 31 -65 178 30 178 15 0
39 -9 53 -20z m-166 -62 c-3 -7 -5 -2 -5 12 0 14 2 19 5 13 2 -7 2 -19 0 -25z
m0 -40 c-3 -8 -6 -5 -6 6 -1 11 2 17 5 13 3 -3 4 -12 1 -19z m37 -55 c12 -16
14 -24 6 -21 -16 5 -46 48 -34 48 5 0 18 -12 28 -27z"/>
<path d="M1070 1061 c-74 -39 -101 -128 -64 -207 49 -103 219 -103 268 0 65
137 -73 277 -204 207z m-12 -60 c-18 -22 -35 -38 -37 -36 -6 7 49 75 60 75 6
0 -5 -18 -23 -39z m181 2 c18 -21 31 -47 31 -62 -1 -24 -2 -23 -16 9 -8 19
-27 47 -41 63 -15 15 -22 27 -16 27 6 0 25 -16 42 -37z m-57 6 c33 -18 51 -74
37 -116 -25 -76 -133 -76 -158 0 -15 44 -6 82 26 107 28 22 64 26 95 9z m77
-126 c-12 -33 -38 -63 -52 -63 -6 0 1 12 15 28 14 15 28 35 31 45 4 9 9 17 11
17 3 0 1 -12 -5 -27z m-194 -42 c24 -26 25 -31 9 -23 -12 6 -29 22 -38 36 -16
25 -23 48 -8 31 4 -6 21 -25 37 -44z"/>
<path d="M1403 1064 c-18 -9 -43 -33 -55 -53 -20 -32 -23 -52 -26 -174 -4
-133 -3 -140 19 -163 44 -47 48 -36 47 119 -2 157 7 197 48 216 40 18 63 13
95 -18 74 -75 -1 -186 -98 -146 l-33 14 0 -34 c0 -29 4 -35 35 -45 95 -31 185
39 185 146 0 116 -115 188 -217 138z m-7 -58 c-17 -18 -33 -32 -35 -30 -7 6
41 64 53 64 7 0 -1 -15 -18 -34z m169 4 c16 -16 26 -30 23 -30 -3 0 -20 14
-38 30 -18 17 -28 30 -23 30 5 0 22 -13 38 -30z m35 -92 c0 -26 -4 -38 -8 -30
-8 12 -4 72 4 72 2 0 4 -19 4 -42z m-243 -15 c-3 -10 -5 -4 -5 12 0 17 2 24 5
18 2 -7 2 -21 0 -30z m219 -52 c-4 -5 -21 -20 -39 -32 l-32 -22 35 36 c32 33
50 42 36 18z"/>
<path d="M1734 1066 c-64 -28 -102 -110 -83 -180 27 -101 163 -148 243 -85 32
25 33 43 4 63 -20 14 -24 14 -43 -3 -31 -29 -61 -34 -94 -16 -27 14 -51 42
-51 60 0 4 54 6 120 4 l120 -4 0 30 c0 101 -119 173 -216 131z m-9 -56 c-24
-25 -27 -33 -18 -52 8 -17 7 -26 -3 -36 -20 -19 -24 -15 -24 25 0 26 8 45 27
65 15 15 31 28 37 28 5 0 -3 -13 -19 -30z m167 3 c34 -33 39 -83 8 -83 -24 0
-25 4 -5 24 14 13 12 19 -16 50 -36 42 -28 48 13 9z m-38 -14 c14 -11 26 -25
26 -30 0 -5 -36 -9 -80 -9 -44 0 -80 4 -80 9 0 18 53 51 80 51 15 0 39 -9 54
-21z m-138 -150 c17 -18 22 -28 12 -24 -14 6 -55 55 -45 55 2 0 16 -14 33 -31z
m155 -29 c-13 -11 -33 -20 -45 -19 l-21 0 21 9 c12 5 25 13 29 19 3 6 14 11
23 11 14 -1 13 -4 -7 -20z m-94 -16 c-3 -3 -12 -4 -19 -1 -8 3 -5 6 6 6 11 1
17 -2 13 -5z"/>
<path d="M2540 1059 c-44 -27 -57 -44 -70 -91 -32 -114 81 -227 184 -184 33
14 36 18 36 57 0 36 -2 40 -12 26 -19 -24 -64 -38 -92 -27 -62 23 -75 103 -26
152 27 26 36 30 67 25 61 -10 73 -29 73 -116 0 -81 16 -121 48 -121 15 0 17
12 14 108 -2 85 -6 112 -20 132 -43 59 -139 77 -202 39z m-2 -49 c-17 -17 -33
-29 -35 -26 -7 6 43 56 56 56 5 0 -4 -14 -21 -30z m166 15 c14 -11 20 -29 21
-67 2 -46 2 -48 -4 -13 -7 47 -19 68 -46 83 -14 8 -15 11 -5 11 8 0 24 -6 34
-14z m-134 -218 c0 -15 -58 45 -63 65 -4 13 5 7 28 -19 19 -21 34 -41 35 -46z"/>
<path d="M2340 942 c0 -112 2 -131 18 -145 43 -39 47 -26 44 128 l-3 145 -30
0 -29 0 0 -128z m38 26 l-1 -73 -6 65 c-4 36 -5 68 -3 73 9 20 12 0 10 -65z
m-1 -140 c-3 -8 -6 -5 -6 6 -1 11 2 17 5 13 3 -3 4 -12 1 -19z"/>
</g>
</svg>
